<svg xmlns="http://www.w3.org/2000/svg" xmlns:xlink="http://www.w3.org/1999/xlink" viewBox="0,0,256,256" width="48px" height="48px" fill-rule="nonzero"><g fill="#ad00ff" fill-rule="nonzero" stroke="none" stroke-width="1" stroke-linecap="butt" stroke-linejoin="miter" stroke-miterlimit="10" stroke-dasharray="" stroke-dashoffset="0" font-family="none" font-weight="none" font-size="none" text-anchor="none" style="mix-blend-mode: normal"><g transform="scale(5.33333,5.33333)"><path d="M36.5,6h-25c-3.033,0 -5.5,2.468 -5.5,5.5v25c0,3.032 2.467,5.5 5.5,5.5h25c3.033,0 5.5,-2.468 5.5,-5.5v-25c0,-3.032 -2.467,-5.5 -5.5,-5.5zM23.5,35c-2.209,0 -4.434,-0.57 -6.169,-1.17c-0.201,-0.069 -0.331,-0.259 -0.331,-0.472v-4.661c0,-0.179 0.18,-0.302 0.344,-0.231c1.167,0.502 3.268,1.294 5.333,1.511c0.947,0.099 1.876,-0.005 2.399,-0.547c0.182,-0.189 0.423,-0.574 0.423,-1.157c0,-0.447 -0.087,-1.494 -2.534,-2.214c-2.201,-0.617 -6.465,-2.037 -6.465,-6.559c0,-2.998 2.095,-6.5 8,-6.5c2.209,0 4.434,0.57 6.169,1.17c0.201,0.069 0.331,0.259 0.331,0.472v4.652c0,0.18 -0.181,0.302 -0.345,0.23c-1.162,-0.508 -3.256,-1.304 -5.321,-1.487c-0.934,-0.119 -1.95,-0.029 -2.446,0.459c-0.161,0.158 -0.388,0.477 -0.388,0.943c0,0.383 0.012,1.238 2.489,1.991c4.321,1.261 6.511,3.553 6.511,6.819c0,3.115 -2.095,6.751 -8,6.751z"></path></g></g></svg>